<svg xmlns="http://www.w3.org/2000/svg" width="60" height="60" viewBox="0 0 60 60"><path d="M82.505,84.946a.559.559,0,0,0-.559-.555H75.554a.559.559,0,0,0-.559.555V91.3a.559.559,0,0,0,.559.556h6.392a.559.559,0,0,0,.559-.556Zm10.658-.562H86.771a.559.559,0,0,0-.559.555v6.35a.559.559,0,0,0,.559.555h6.392a.559.559,0,0,0,.559-.555v-6.35A.555.555,0,0,0,93.164,84.384ZM81.946,95.535H75.554A.559.559,0,0,0,75,96.09v6.35a.559.559,0,0,0,.559.555h6.392a.559.559,0,0,0,.559-.555V96.09A.559.559,0,0,0,81.946,95.535Zm11.217,0H86.771a.559.559,0,0,0-.559.555v6.35a.559.559,0,0,0,.559.555h6.392a.559.559,0,0,0,.559-.555V96.09A.555.555,0,0,0,93.164,95.535ZM98,84.384a.559.559,0,0,0-.559.555v6.35a.559.559,0,0,0,.559.555h6.392a.559.559,0,0,0,.559-.555v-6.35a.559.559,0,0,0-.559-.555ZM76.3,73.548h1.422A1.656,1.656,0,0,0,79.378,71.9V64.146A1.656,1.656,0,0,0,77.722,62.5H76.3a1.656,1.656,0,0,0-1.657,1.646V71.9A1.649,1.649,0,0,0,76.3,73.548Zm26.017,0h1.422A1.656,1.656,0,0,0,105.4,71.9V64.146a1.656,1.656,0,0,0-1.657-1.646h-1.422a1.656,1.656,0,0,0-1.657,1.646V71.9A1.653,1.653,0,0,0,102.317,73.548Zm-10.244,32.9H72.51a2.828,2.828,0,0,1-2.837-2.819V81.064h40.686v8.716c.311-.021.628-.021.946-.021a18.074,18.074,0,0,1,3.306.309v-18.4a3.773,3.773,0,0,0-3.783-3.765h-3.072v4a4.02,4.02,0,0,1-4.024,4H102.31a4.014,4.014,0,0,1-4.017-4v-4H81.725v4a4.02,4.02,0,0,1-4.024,4H76.279a4.014,4.014,0,0,1-4.017-4v-4H69.183A3.773,3.773,0,0,0,65.4,71.669v35.716a3.778,3.778,0,0,0,3.783,3.765h23.18A17.958,17.958,0,0,1,92,107.625c.028-.4.041-.789.069-1.18Zm29.047-8.593a14.487,14.487,0,0,0-9.754-4.245h-.511a14.542,14.542,0,0,0-14.579,14.45,14.212,14.212,0,0,0,1.215,5.74A14.572,14.572,0,0,0,125.4,108.05,14.235,14.235,0,0,0,121.12,97.853Zm-3.382,12.331h-4.784V114.9h-4.231v-4.718h-4.749v-4.245h4.749V101.22h4.231v4.718h4.784Z" transform="translate(-65.4 -62.5)" fill="#fff"/></svg>