<svg aria-hidden="true" style="position: absolute; width: 0; height: 0; overflow: hidden;" version="1.1" xmlns="http://www.w3.org/2000/svg" xmlns:xlink="http://www.w3.org/1999/xlink">
<defs>
<symbol id="icon-handshake" viewBox="0 0 60 60"><path d="M71.915,97.879H65.222a2.715,2.715,0,0,0-2.722,2.707v25.793a2.721,2.721,0,0,0,2.722,2.714h6.693a2.717,2.717,0,0,0,2.722-2.714V100.593a2.726,2.726,0,0,0-2.722-2.714Zm15.95,8.143H81.186a2.723,2.723,0,0,0-2.729,2.714v17.65a2.718,2.718,0,0,0,2.729,2.714h6.686a2.717,2.717,0,0,0,2.722-2.714v-17.65A2.727,2.727,0,0,0,87.865,106.021Zm15.957,0H97.129a2.721,2.721,0,0,0-2.722,2.714v17.65a2.717,2.717,0,0,0,2.722,2.714h6.693a2.717,2.717,0,0,0,2.722-2.714v-17.65A2.721,2.721,0,0,0,103.821,106.021Zm15.957-8.143h-6.686a2.717,2.717,0,0,0-2.729,2.707v25.793a2.723,2.723,0,0,0,2.729,2.714h6.686a2.717,2.717,0,0,0,2.722-2.714V100.593A2.726,2.726,0,0,0,119.778,97.879ZM99.673,74.556a.952.952,0,0,0-.343-.216L91.519,71.9a5.537,5.537,0,0,0-5.705,1.274,3.188,3.188,0,0,0-.693.953l-3.483,8.15A2.09,2.09,0,0,0,81.817,84a3.379,3.379,0,0,0,2.215,1.747,3.26,3.26,0,0,0,3.072-.974,3.543,3.543,0,0,0,.542-.689l1.173-2.158a4.243,4.243,0,0,1,.761-1.03c1.008-1,1.481-.55,1.687-.348,1.749,1.691,10.923,10.857,10.923,10.857a.969.969,0,0,1-.151,1.343.994.994,0,0,1-1.351.146l-2.571-2.568a.856.856,0,0,0-1.2,0,.837.837,0,0,0,0,1.2l2.571,2.568a1.081,1.081,0,0,1-1.495,1.489l-2.578-2.561a.847.847,0,0,0-1.2,1.2l2.578,2.575a.976.976,0,0,1-.158,1.336.988.988,0,0,1-1.351.153l-2.578-2.561a.835.835,0,0,0-1.193,0,.849.849,0,0,0,0,1.2l2.571,2.561a.974.974,0,0,1-.144,1.343.991.991,0,0,1-1.351.16l-3.154-3.139a1.941,1.941,0,0,0-2.894-2.464,1.794,1.794,0,0,0-.144-2.533,1.825,1.825,0,0,0-2.558-.16,1.789,1.789,0,0,0-.158-2.533,1.819,1.819,0,0,0-2.558-.16,1.8,1.8,0,0,0-.144-2.547,1.866,1.866,0,0,0-2.421-.258l-5.081-5.067a.847.847,0,0,0-1.2,1.2l5.074,5.046-1.509,1.5a1.8,1.8,0,0,0,.151,2.54,1.831,1.831,0,0,0,2.558.153,1.8,1.8,0,0,0,.151,2.547,1.823,1.823,0,0,0,2.558.139,1.923,1.923,0,0,0,2.7,2.7,1.807,1.807,0,0,0,.158,2.547,1.829,1.829,0,0,0,2.551.153l1.591-1.587,3.12,3.1a2.664,2.664,0,0,0,3.751-.16,2.8,2.8,0,0,0,.843-1.844,2.865,2.865,0,0,0,1.858-.842,2.8,2.8,0,0,0,.843-1.851,2.856,2.856,0,0,0,1.858-.835,2.816,2.816,0,0,0,.843-1.858,2.865,2.865,0,0,0,1.858-.842,2.635,2.635,0,0,0,.151-3.73l-1.317-1.315,5.4-5.373a.849.849,0,0,0,0-1.2l-7.8-7.76Zm12.782,1.886L105.583,69.6a1.7,1.7,0,0,0-2.407,0L100.777,72a1.69,1.69,0,0,0,0,2.387l6.878,6.841a1.7,1.7,0,0,0,2.407,0l2.407-2.387A1.7,1.7,0,0,0,112.454,76.443Zm-3.607,3.487a1.389,1.389,0,1,1,1.4-1.385A1.389,1.389,0,0,1,108.847,79.929Z" transform="translate(-62.5 -69.1)"/></symbol>
<symbol id="icon-pie-chart" viewBox="0 0 60 60"><path d="M89.154,88.263c-14.715,0-26.654,12.563-26.654,28.065S74.431,144.4,89.154,144.4s26.654-12.563,26.654-28.072H89.154ZM122.5,113.115a28.739,28.739,0,0,0-7.8-19.841l-18.85,19.841ZM92.527,84.4v28.058l18.843-19.841A25.9,25.9,0,0,0,92.527,84.4Z" transform="translate(-62.5 -84.4)"/></symbol>
<symbol id="icon-bank" viewBox="0 0 60 60"><path d="M64.739,115.206h55.7a2.122,2.122,0,0,0,0-3.129L92.6,94.4,64.739,112.07S62.813,113.941,64.739,115.206Zm57.518,36.768-3.36-3.151a1.6,1.6,0,0,0-.946-.311l-50.038.081a1.863,1.863,0,0,0-.987.3l-3.956,3.1a1,1,0,0,0-.37.658v1.383c0,.2.274.37.617.37h58.766c.336,0,.617-.163.617-.37v-1.376A1.212,1.212,0,0,0,122.257,151.974Zm-8.824-34.32h5.129v27.729h-5.129V117.654Zm-8.392,0h5.129v27.729h-5.129V117.654Zm-29.236,0h5.129v27.729H75.805V117.654Zm-8.392,0h5.129v27.729H67.413V117.654ZM92.7,145.347a3.793,3.793,0,0,0,1.152-.178v-3.358a6.241,6.241,0,0,0,3.641-2.219,6.422,6.422,0,0,0,1.248-4.009,7.441,7.441,0,0,0-.322-2.359,4.534,4.534,0,0,0-.9-1.59,5.309,5.309,0,0,0-1.412-1.117c-.555-.311-1.172-.621-1.851-.925l-1.611-.725q-.4-.178-.8-.377a3.646,3.646,0,0,1-.727-.481,1.952,1.952,0,0,1-.507-.68,2.372,2.372,0,0,1-.185-.984,2.206,2.206,0,0,1,.24-1.087,1.745,1.745,0,0,1,.617-.651,2.2,2.2,0,0,1,.843-.3,6.669,6.669,0,0,1,.926-.074,10.507,10.507,0,0,1,1.344.074c.391.052.747.111,1.063.185a6.026,6.026,0,0,1,.884.288c.274.118.549.229.816.348a10.792,10.792,0,0,0,.857-3.3,19.134,19.134,0,0,0-2.091-.651,13.233,13.233,0,0,0-2.071-.333v-2.981a4.233,4.233,0,0,0-1.179-.17,4.029,4.029,0,0,0-1.152.17v3.07a5.967,5.967,0,0,0-3.785,1.827,5.891,5.891,0,0,0-1.371,4.112,6.6,6.6,0,0,0,.281,2.056,4.476,4.476,0,0,0,.8,1.464,5.369,5.369,0,0,0,1.248,1.072,14.3,14.3,0,0,0,1.611.858l1.426.666c.3.155.617.3.939.436a3.8,3.8,0,0,1,.871.5,2.315,2.315,0,0,1,.645.74,2.275,2.275,0,0,1,.254,1.146,2.249,2.249,0,0,1-.926,2.012,4.671,4.671,0,0,1-2.619.621,11.3,11.3,0,0,1-2.119-.185,10.014,10.014,0,0,1-2.119-.68c-.2.621-.37,1.213-.507,1.783a11.4,11.4,0,0,0-.295,1.694c.446.192.878.355,1.289.5a12.462,12.462,0,0,0,1.248.333,10.385,10.385,0,0,0,1.33.185c.466.037.994.059,1.584.059h.213v3.07a4.964,4.964,0,0,0,1.179.155Z" transform="translate(-62.6 -94.4)"/></symbol>
<symbol id="icon-chevron-right" viewBox="0 0 6.8 11.6"><path d="M2,.32C2.38.72,6.46,5,6.46,5a1.09,1.09,0,0,1,.34.79,1.08,1.08,0,0,1-.34.79S2.38,10.88,2,11.28a1.18,1.18,0,0,1-1.61,0,1.06,1.06,0,0,1,0-1.57L4.09,5.8.35,1.89A1.06,1.06,0,0,1,.35.32,1.18,1.18,0,0,1,2,.32Z"/></symbol>
<symbol id="icon-chevron-left" viewBox="0 0 6.8 11.6"><path d="M6.45.32a1.06,1.06,0,0,1,0,1.57L2.7,5.8,6.45,9.71a1.06,1.06,0,0,1,0,1.57,1.18,1.18,0,0,1-1.61,0c-.42-.4-4.5-4.69-4.5-4.69A1.08,1.08,0,0,1,0,5.8,1.09,1.09,0,0,1,.34,5S4.42.72,4.84.32A1.18,1.18,0,0,1,6.45.32Z"/></symbol>
<symbol id="icon-circle-with-cross" viewBox="0 0 20 20">
<path d="M10 1.6c-4.639 0-8.4 3.761-8.4 8.4s3.761 8.4 8.4 8.4 8.4-3.761 8.4-8.4c0-4.639-3.761-8.4-8.4-8.4zM14.789 13.061l-1.729 1.729-3.060-3.061-3.061 3.060-1.729-1.729 3.062-3.060-3.061-3.061 1.729-1.728 3.060 3.060 3.061-3.061 1.729 1.729-3.062 3.061 3.061 3.061z"></path>
</symbol>
<!-- <symbol id="icon-user" viewBox="0 0 20 20">
<path d="M7.725 2.146c-1.016 0.756-1.289 1.953-1.239 2.59 0.064 0.779 0.222 1.793 0.222 1.793s-0.313 0.17-0.313 0.854c0.109 1.717 0.683 0.976 0.801 1.729 0.284 1.814 0.933 1.491 0.933 2.481 0 1.649-0.68 2.42-2.803 3.334-2.13 0.918-4.326 2.073-4.326 4.073v1h18v-1c0-2-2.197-3.155-4.328-4.072-2.123-0.914-2.801-1.684-2.801-3.334 0-0.99 0.647-0.667 0.932-2.481 0.119-0.753 0.692-0.012 0.803-1.729 0-0.684-0.314-0.854-0.314-0.854s0.158-1.014 0.221-1.793c0.065-0.817-0.398-2.561-2.3-3.096-0.333-0.34-0.558-0.881 0.466-1.424-2.24-0.105-2.761 1.067-3.954 1.929z"></path>
</symbol> -->
<symbol id="icon-facebook-with-circle" viewBox="0 0 20 20">
<path d="M10 0.4c-5.302 0-9.6 4.298-9.6 9.6s4.298 9.6 9.6 9.6 9.6-4.298 9.6-9.6-4.298-9.6-9.6-9.6zM12.274 7.034h-1.443c-0.171 0-0.361 0.225-0.361 0.524v1.042h1.805l-0.273 1.486h-1.532v4.461h-1.703v-4.461h-1.545v-1.486h1.545v-0.874c0-1.254 0.87-2.273 2.064-2.273h1.443v1.581z"></path>
</symbol>
<symbol id="icon-twitter-with-circle" viewBox="0 0 20 20">
<path d="M10 0.4c-5.302 0-9.6 4.298-9.6 9.6s4.298 9.6 9.6 9.6 9.6-4.298 9.6-9.6-4.298-9.6-9.6-9.6zM13.905 8.264c0.004 0.082 0.005 0.164 0.005 0.244 0 2.5-1.901 5.381-5.379 5.381-1.068 0-2.062-0.312-2.898-0.85 0.147 0.018 0.298 0.025 0.451 0.025 0.886 0 1.701-0.301 2.348-0.809-0.827-0.016-1.525-0.562-1.766-1.312 0.115 0.021 0.233 0.033 0.355 0.033 0.172 0 0.34-0.023 0.498-0.066-0.865-0.174-1.517-0.938-1.517-1.854v-0.023c0.255 0.141 0.547 0.227 0.857 0.237-0.508-0.34-0.841-0.918-0.841-1.575 0-0.346 0.093-0.672 0.256-0.951 0.933 1.144 2.325 1.896 3.897 1.977-0.033-0.139-0.049-0.283-0.049-0.432 0-1.043 0.846-1.891 1.891-1.891 0.543 0 1.035 0.23 1.38 0.598 0.431-0.086 0.835-0.242 1.2-0.459-0.141 0.441-0.44 0.812-0.831 1.047 0.383-0.047 0.747-0.148 1.086-0.299-0.253 0.379-0.574 0.713-0.943 0.979z"></path>
</symbol>
<symbol id="icon-instagram-with-circle" viewBox="0 0 20 20">
<path d="M13 10c0 1.657-1.343 3-3 3s-3-1.343-3-3c0-0.171 0.018-0.338 0.049-0.5h-1.049v3.997c0 0.278 0.225 0.503 0.503 0.503h6.995c0.277 0 0.502-0.225 0.502-0.503v-3.997h-1.049c0.031 0.162 0.049 0.329 0.049 0.5zM10 12c1.104 0 2-0.896 2-2s-0.896-2-2-2-2 0.896-2 2 0.896 2 2 2zM12.4 7.9h1.199c0.166 0 0.301-0.135 0.301-0.3v-1.199c0-0.166-0.135-0.301-0.301-0.301h-1.199c-0.166 0-0.301 0.135-0.301 0.301v1.199c0.001 0.165 0.136 0.3 0.301 0.3zM10 0.4c-5.302 0-9.6 4.298-9.6 9.6s4.298 9.6 9.6 9.6c5.302 0 9.6-4.298 9.6-9.6s-4.298-9.6-9.6-9.6zM15 13.889c0 0.611-0.5 1.111-1.111 1.111h-7.778c-0.611 0-1.111-0.5-1.111-1.111v-7.778c0-0.611 0.5-1.111 1.111-1.111h7.778c0.611 0 1.111 0.5 1.111 1.111v7.778z"></path>
</symbol>
<symbol id="icon-checkmark" viewBox="0 0 20 20"><path d="M0 11l2-2 5 5 11-11 2 2-13 13z"></path></symbol>
<symbol id="icon-edit" viewBox="0 0 20 20">
<path d="M17.561 2.439c-1.442-1.443-2.525-1.227-2.525-1.227l-12.826 12.825-1.010 4.762 4.763-1.010 12.826-12.823c-0.001 0 0.216-1.083-1.228-2.527zM5.68 17.217l-1.624 0.35c-0.156-0.293-0.345-0.586-0.69-0.932s-0.639-0.533-0.932-0.691l0.35-1.623 0.47-0.469c0 0 0.883 0.018 1.881 1.016 0.997 0.996 1.016 1.881 1.016 1.881l-0.471 0.468z"></path>
</symbol>
<symbol id="icon-cross" viewBox="0 0 20 20">
<path d="M14.348 14.849c-0.469 0.469-1.229 0.469-1.697 0l-2.651-3.030-2.651 3.029c-0.469 0.469-1.229 0.469-1.697 0-0.469-0.469-0.469-1.229 0-1.697l2.758-3.15-2.759-3.152c-0.469-0.469-0.469-1.228 0-1.697s1.228-0.469 1.697 0l2.652 3.031 2.651-3.031c0.469-0.469 1.228-0.469 1.697 0s0.469 1.229 0 1.697l-2.758 3.152 2.758 3.15c0.469 0.469 0.469 1.229 0 1.698z"></path>
</symbol>
<symbol id="icon-user" viewBox="0 0 24 32">
<path d="M12 16c-6.625 0-12 5.375-12 12 0 2.211 1.789 4 4 4h16c2.211 0 4-1.789 4-4 0-6.625-5.375-12-12-12zM6 6c0-3.314 2.686-6 6-6s6 2.686 6 6c0 3.314-2.686 6-6 6s-6-2.686-6-6z"></path>
</symbol>
<!-- <symbol id="icon-checkmark" viewBox="0 0 20 20">
<path d="M0 11l2-2 5 5 11-11 2 2-13 13z"></path>
</symbol> -->
</defs>
</svg>
